custom-analysis
version=1
nRows=5
nColumns=133
inDegrees=no

This file contains tibia displacement and acting force.

Units are S.I. units (seconds, meters, Newtons, ...)
Angles are in degrees.

endheader
time	APT	knee_angle	aACL_R_force	pACL_R_force	aPCL_R_force	pPCL_R_force	aMCL_R_force	aLCL_R_force	aPCL_L_force	pPCL_L_force	aMCL_L_force	aLCL_L_force	aACL_R_length	pACL_R_length	aPCL_R_length	pPCL_R_length	aMCL_R_length	aLCL_R_length	aPCL_L_length	pPCL_L_length	aMCL_L_length	aLCL_L_length	aACL_R_strain	pACL_R_strain	aPCL_R_strain	pPCL_R_strain	aMCL_R_strain	aLCL_R_strain	aPCL_L_strain	pPCL_L_strain	aMCL_L_strain	aLCL_L_strain	femur_lat_meniscii_l.femur_lat_l.force.X	femur_lat_meniscii_l.femur_lat_l.force.Y	femur_lat_meniscii_l.femur_lat_l.force.Z	femur_lat_meniscii_l.femur_lat_l.torque.X	femur_lat_meniscii_l.femur_lat_l.torque.Y	femur_lat_meniscii_l.femur_lat_l.torque.Z	femur_lat_meniscii_l.meniscus_lat_l.force.X	femur_lat_meniscii_l.meniscus_lat_l.force.Y	femur_lat_meniscii_l.meniscus_lat_l.force.Z	femur_lat_meniscii_l.meniscus_lat_l.torque.X	femur_lat_meniscii_l.meniscus_lat_l.torque.Y	femur_lat_meniscii_l.meniscus_lat_l.torque.Z	femur_med_meniscii_l.femur_med_l.force.X	femur_med_meniscii_l.femur_med_l.force.Y	femur_med_meniscii_l.femur_med_l.force.Z	femur_med_meniscii_l.femur_med_l.torque.X	femur_med_meniscii_l.femur_med_l.torque.Y	femur_med_meniscii_l.femur_med_l.torque.Z	femur_med_meniscii_l.meniscus_med_l.force.X	femur_med_meniscii_l.meniscus_med_l.force.Y	femur_med_meniscii_l.meniscus_med_l.force.Z	femur_med_meniscii_l.meniscus_med_l.torque.X	femur_med_meniscii_l.meniscus_med_l.torque.Y	femur_med_meniscii_l.meniscus_med_l.torque.Z	femur_lat_meniscii_r.femur_lat_r.force.X	femur_lat_meniscii_r.femur_lat_r.force.Y	femur_lat_meniscii_r.femur_lat_r.force.Z	femur_lat_meniscii_r.femur_lat_r.torque.X	femur_lat_meniscii_r.femur_lat_r.torque.Y	femur_lat_meniscii_r.femur_lat_r.torque.Z	femur_lat_meniscii_r.meniscus_lat_r.force.X	femur_lat_meniscii_r.meniscus_lat_r.force.Y	femur_lat_meniscii_r.meniscus_lat_r.force.Z	femur_lat_meniscii_r.meniscus_lat_r.torque.X	femur_lat_meniscii_r.meniscus_lat_r.torque.Y	femur_lat_meniscii_r.meniscus_lat_r.torque.Z	femur_med_meniscii_r.femur_med_r.force.X	femur_med_meniscii_r.femur_med_r.force.Y	femur_med_meniscii_r.femur_med_r.force.Z	femur_med_meniscii_r.femur_med_r.torque.X	femur_med_meniscii_r.femur_med_r.torque.Y	femur_med_meniscii_r.femur_med_r.torque.Z	femur_med_meniscii_r.meniscus_med_r.force.X	femur_med_meniscii_r.meniscus_med_r.force.Y	femur_med_meniscii_r.meniscus_med_r.force.Z	femur_med_meniscii_r.meniscus_med_r.torque.X	femur_med_meniscii_r.meniscus_med_r.torque.Y	femur_med_meniscii_r.meniscus_med_r.torque.Z	femur_med_tibia_l.tibia_upper_l.force.X	femur_med_tibia_l.tibia_upper_l.force.Y	femur_med_tibia_l.tibia_upper_l.force.Z	femur_med_tibia_l.tibia_upper_l.torque.X	femur_med_tibia_l.tibia_upper_l.torque.Y	femur_med_tibia_l.tibia_upper_l.torque.Z	femur_med_tibia_l.femur_med_l.force.X	femur_med_tibia_l.femur_med_l.force.Y	femur_med_tibia_l.femur_med_l.force.Z	femur_med_tibia_l.femur_med_l.torque.X	femur_med_tibia_l.femur_med_l.torque.Y	femur_med_tibia_l.femur_med_l.torque.Z	femur_lat_tibia_l.tibia_upper_l.force.X	femur_lat_tibia_l.tibia_upper_l.force.Y	femur_lat_tibia_l.tibia_upper_l.force.Z	femur_lat_tibia_l.tibia_upper_l.torque.X	femur_lat_tibia_l.tibia_upper_l.torque.Y	femur_lat_tibia_l.tibia_upper_l.torque.Z	femur_lat_tibia_l.femur_lat_l.force.X	femur_lat_tibia_l.femur_lat_l.force.Y	femur_lat_tibia_l.femur_lat_l.force.Z	femur_lat_tibia_l.femur_lat_l.torque.X	femur_lat_tibia_l.femur_lat_l.torque.Y	femur_lat_tibia_l.femur_lat_l.torque.Z	femur_med_tibia_r.tibia_upper_r.force.X	femur_med_tibia_r.tibia_upper_r.force.Y	femur_med_tibia_r.tibia_upper_r.force.Z	femur_med_tibia_r.tibia_upper_r.torque.X	femur_med_tibia_r.tibia_upper_r.torque.Y	femur_med_tibia_r.tibia_upper_r.torque.Z	femur_med_tibia_r.femur_med_r.force.X	femur_med_tibia_r.femur_med_r.force.Y	femur_med_tibia_r.femur_med_r.force.Z	femur_med_tibia_r.femur_med_r.torque.X	femur_med_tibia_r.femur_med_r.torque.Y	femur_med_tibia_r.femur_med_r.torque.Z	femur_lat_tibia_r.tibia_upper_r.force.X	femur_lat_tibia_r.tibia_upper_r.force.Y	femur_lat_tibia_r.tibia_upper_r.force.Z	femur_lat_tibia_r.tibia_upper_r.torque.X	femur_lat_tibia_r.tibia_upper_r.torque.Y	femur_lat_tibia_r.tibia_upper_r.torque.Z	femur_lat_tibia_r.femur_lat_r.force.X	femur_lat_tibia_r.femur_lat_r.force.Y	femur_lat_tibia_r.femur_lat_r.force.Z	femur_lat_tibia_r.femur_lat_r.torque.X	femur_lat_tibia_r.femur_lat_r.torque.Y	femur_lat_tibia_r.femur_lat_r.torque.Z	femur_lat_meniscii_force_r	femur_med_meniscii_force_r	femur_lat_tibia_force_r	femur_med_tibia_force_r
      0.15405914	      0.01795893	     79.05559757	      0.00000000	      0.00000000	    664.26259807	    575.57368897	      6.72106077	      0.00000000	      0.00000000	      0.00000000	    116.99866359	      0.00000000	      0.03396701	      0.02165507	      0.03700325	      0.03237262	      0.06206323	      0.05224005	      0.01525851	      0.01651186	      0.06550154	      0.04489616	     -0.06513773	     -0.19492484	      0.22122945	      0.34049225	      0.00407574	     -0.17207676	      0.00000079	     -0.32847694	      0.07222957	     -0.00000086	      2.76307435	     50.99597937	     -9.56042239	      5.21997485	     -0.02578839	      1.48581788	     -2.76307435	    -50.99597937	      9.56042239	     -1.74637766	      0.02558040	     -0.48301696	     -3.31599387	     20.97615968	     -3.40468921	      0.94473225	     -0.02138609	     -1.00501789	      3.31599387	    -20.97615968	      3.40468921	      0.28075727	      0.00368718	     -0.29758878	   -258.86417347	    157.90834862	      0.97418485	     -3.60497846	     -6.42573458	     61.08198312	    258.86417347	   -157.90834862	     -0.97418485	      4.19904956	      6.96795156	      8.88742322	   -237.55893738	    141.73195225	    -48.44044933	      2.64656526	     23.78084161	     54.38772732	    237.55893738	   -141.73195225	     48.44044933	     -3.47420823	     -3.65486799	      8.55775646	      0.00000000	      0.00000000	      0.00000000	      0.00000000	      0.00000000	      0.00000000	      0.00000000	      0.00000000	      0.00000000	      0.00000000	      0.00000000	      0.00000000	      0.00000000	      0.00000000	      0.00000000	      0.00000000	      0.00000000	      0.00000000	      0.00000000	      0.00000000	      0.00000000	      0.00000000	      0.00000000	      0.00000000	    573.72570958	   -570.23621986	     72.57593048	    -11.07380138	     -8.84731199	     18.10339320	   -573.72570958	    570.23621986	    -72.57593048	     11.11927009	     39.78338567	    224.60494045	      1.88464206	     -1.16156043	     -0.32670805	      0.04152819	      0.05010935	      0.06142966	     -1.88464206	      1.16156043	      0.32670805	     -0.02834040	     -0.17332517	      0.45272012	    303.22706988	    280.83566751	      2.23781958	    812.15626696
      0.15472891	      0.01792663	     79.54095094	      0.00000000	      0.00000000	    669.33453542	    579.29926557	      6.47299191	      0.00000000	      0.00000000	      0.00000000	    116.99866359	      0.00000000	      0.03392138	      0.02161617	      0.03705925	      0.03244978	      0.06206942	      0.05217163	      0.01525851	      0.01651186	      0.06550154	      0.04489616	     -0.06639344	     -0.19637100	      0.22307760	      0.34368712	      0.00417592	     -0.17316120	      0.00000079	     -0.32847694	      0.07222957	     -0.00000086	      2.76307435	     50.99597937	     -9.56042239	      5.21997485	     -0.02578839	      1.48581788	     -2.76307435	    -50.99597937	      9.56042239	     -1.74637766	      0.02558040	     -0.48301696	     -3.31599387	     20.97615968	     -3.40468921	      0.94473225	     -0.02138609	     -1.00501789	      3.31599387	    -20.97615968	      3.40468921	      0.28075727	      0.00368718	     -0.29758878	   -263.71027057	    160.50291973	      1.46063842	     -3.66925847	     -6.75669983	     62.04728504	    263.71027057	   -160.50291973	     -1.46063842	      4.28924057	      7.12757513	      9.13328603	   -250.68204836	    151.75572645	    -50.57389926	      2.80638102	     24.84379487	     58.24366366	    250.68204836	   -151.75572645	     50.57389926	     -3.65720049	     -3.80811558	      9.09482534	      0.00000000	      0.00000000	      0.00000000	      0.00000000	      0.00000000	      0.00000000	      0.00000000	      0.00000000	      0.00000000	      0.00000000	      0.00000000	      0.00000000	      0.00000000	      0.00000000	      0.00000000	      0.00000000	      0.00000000	      0.00000000	      0.00000000	      0.00000000	      0.00000000	      0.00000000	      0.00000000	      0.00000000	    581.67463889	   -588.10400813	     75.75811660	    -11.41012327	     -8.90666320	     18.48892175	   -581.67463889	    588.10400813	    -75.75811660	     11.43840875	     41.16190664	    231.68869420	      3.17445740	     -1.94489312	     -0.54083367	      0.06955601	      0.08442883	      0.10471108	     -3.17445740	      1.94489312	      0.54083367	     -0.04757409	     -0.28823940	      0.75723682	    308.71739101	    297.37015514	      3.76195297	    830.63289253
      0.15539869	      0.01789222	     80.02699782	      0.00000000	      0.00000000	    674.98678816	    585.28022936	      6.11781341	      0.00000000	      0.00000000	      0.00000000	    116.99866359	      0.00000000	      0.03387489	      0.02157692	      0.03711470	      0.03252669	      0.06207514	      0.05210294	      0.01525851	      0.01651186	      0.06550154	      0.04489616	     -0.06767300	     -0.19783044	      0.22490766	      0.34687210	      0.00426851	     -0.17424977	      0.00000079	     -0.32847694	      0.07222957	     -0.00000086	      2.76307435	     50.99597937	     -9.56042239	      5.21997485	     -0.02578839	      1.48581788	     -2.76307435	    -50.99597937	      9.56042239	     -1.74637766	      0.02558040	     -0.48301696	     -3.31599387	     20.97615968	     -3.40468921	      0.94473225	     -0.02138609	     -1.00501789	      3.31599387	    -20.97615968	      3.40468921	      0.28075727	      0.00368718	     -0.29758878	   -260.11893771	    155.86664171	      2.08414231	     -3.58623250	     -6.98586530	     60.18841501	    260.11893771	   -155.86664171	     -2.08414231	      4.20990646	      7.10032684	      9.09124505	   -227.39768827	    137.17245849	    -49.57437485	      2.61092868	     24.13237619	     52.62937283	    227.39768827	   -137.17245849	     49.57437485	     -3.48716664	     -3.56538603	      8.29886073	      0.00000000	      0.00000000	      0.00000000	      0.00000000	      0.00000000	      0.00000000	      0.00000000	      0.00000000	      0.00000000	      0.00000000	      0.00000000	      0.00000000	      0.00000000	      0.00000000	      0.00000000	      0.00000000	      0.00000000	      0.00000000	      0.00000000	      0.00000000	      0.00000000	      0.00000000	      0.00000000	      0.00000000	    573.69790820	   -583.43495272	     74.36097442	    -11.23372127	     -8.70221092	     18.41242631	   -573.69790820	    583.43495272	    -74.36097442	     11.29059499	     40.39695873	    229.82524807	      4.48231312	     -2.79114987	     -0.79594745	      0.10085152	      0.11963459	      0.14851421	     -4.48231312	      2.79114987	      0.79594745	     -0.06865313	     -0.42032108	      1.08722607	    303.25008722	    270.15479014	      5.33996076	    821.61742219
      0.15606846	      0.01785523	     80.51362750	      0.00000000	      0.00000000	    680.01324360	    589.68143337	      4.72529420	      0.00000000	      0.00000000	      0.00000000	    116.99866359	      0.00000000	      0.03382703	      0.02153684	      0.03716997	      0.03260388	      0.06208038	      0.05203432	      0.01525851	      0.01651186	      0.06550154	      0.04489616	     -0.06899022	     -0.19932047	      0.22673170	      0.35006837	      0.00435323	     -0.17533724	      0.00000079	     -0.32847694	      0.07222957	     -0.00000086	      2.76307435	     50.99597937	     -9.56042239	      5.21997485	     -0.02578839	      1.48581788	     -2.76307435	    -50.99597937	      9.56042239	     -1.74637766	      0.02558040	     -0.48301696	     -3.31599387	     20.97615968	     -3.40468921	      0.94473225	     -0.02138609	     -1.00501789	      3.31599387	    -20.97615968	      3.40468921	      0.28075727	      0.00368718	     -0.29758878	   -270.44938496	    164.09255969	      2.28280321	     -3.77886267	     -7.39455891	     63.36628600	    270.44938496	   -164.09255969	     -2.28280321	      4.44120360	      7.47221297	      9.52096276	   -221.18824593	    136.42568183	    -48.54155686	      2.53588684	     23.51809195	     52.40789348	    221.18824593	   -136.42568183	     48.54155686	     -3.38654411	     -3.37209876	      8.08844073	      0.00000000	      0.00000000	      0.00000000	      0.00000000	      0.00000000	      0.00000000	      0.00000000	      0.00000000	      0.00000000	      0.00000000	      0.00000000	      0.00000000	      0.00000000	      0.00000000	      0.00000000	      0.00000000	      0.00000000	      0.00000000	      0.00000000	      0.00000000	      0.00000000	      0.00000000	      0.00000000	      0.00000000	    576.63213209	   -591.41706979	     76.51406763	    -11.40062691	     -8.70028456	     18.65176947	   -576.63213209	    591.41706979	    -76.51406763	     11.43349669	     41.28769767	    232.98559866	      5.75929900	     -3.70699818	     -1.03123257	      0.13298746	      0.15355063	      0.19089159	     -5.75929900	      3.70699818	      1.03123257	     -0.09080733	     -0.54336705	      1.44596198	    316.34545858	    264.37187737	      6.92638442	    829.53792483
      0.15673824	      0.01781460	     81.00062993	      0.00000000	      0.00000000	    684.92062148	    592.93269868	      5.09545090	      0.00000000	      0.00000000	      0.00000000	    116.99866359	      0.00000000	      0.03377714	      0.02149534	      0.03722483	      0.03268132	      0.06208437	      0.05196521	      0.01525851	      0.01651186	      0.06550154	      0.04489616	     -0.07036345	     -0.20086313	      0.22854236	      0.35327495	      0.00441777	     -0.17643250	      0.00000079	     -0.32847694	      0.07222957	     -0.00000086	      2.76307435	     50.99597937	     -9.56042239	      5.21997485	     -0.02578839	      1.48581788	     -2.76307435	    -50.99597937	      9.56042239	     -1.74637766	      0.02558040	     -0.48301696	     -3.31599387	     20.97615968	     -3.40468921	      0.94473225	     -0.02138609	     -1.00501789	      3.31599387	    -20.97615968	      3.40468921	      0.28075727	      0.00368718	     -0.29758878	   -266.01849739	    166.69870431	      4.31362651	     -3.83001682	     -8.18041456	     64.44081175	    266.01849739	   -166.69870431	     -4.31362651	      4.56177928	      7.43722601	      9.40677779	   -239.60837477	    148.53855430	    -52.15208936	      2.79045801	     25.37533342	     57.04936636	    239.60837477	   -148.53855430	     52.15208936	     -3.69746402	     -3.70991228	      8.82482227	      0.00000000	      0.00000000	      0.00000000	      0.00000000	      0.00000000	      0.00000000	      0.00000000	      0.00000000	      0.00000000	      0.00000000	      0.00000000	      0.00000000	      0.00000000	      0.00000000	      0.00000000	      0.00000000	      0.00000000	      0.00000000	      0.00000000	      0.00000000	      0.00000000	      0.00000000	      0.00000000	      0.00000000	    570.37696864	   -597.82160274	     78.63396020	    -11.52387030	     -8.54959183	     18.58440679	   -570.37696864	    597.82160274	    -78.63396020	     11.52808607	     41.98355725	    235.56967840	      6.86472169	     -4.53397670	     -1.24423188	      0.16195099	      0.18262299	      0.22791331	     -6.86472169	      4.53397670	      1.24423188	     -0.11067239	     -0.65334748	      1.77032126	    313.96322451	    286.69795220	      8.32042437	    830.00232214
